<svg width="128" height="128" viewBox="0 0 128 128" fill="none" xmlns="http://www.w3.org/2000/svg">
<g clip-path="url(#clip0_747_26)">
<rect width="128" height="128" rx="16" fill="#2A3541"/>
<rect x="10" y="36" width="108" height="56" rx="16" fill="white"/>
<path d="M20.1551 67.1774C18.2467 65.718 17.2925 64.9883 17.2925 64C17.2925 63.0117 18.2467 62.282 20.1551 60.8226L26.5702 55.9169C29.3715 53.7748 30.7721 52.7037 31.8861 53.2542C33 53.8046 33 55.5679 33 59.0943L33 68.9057C33 72.4321 33 74.1954 31.8861 74.7458C30.7721 75.2963 29.3715 74.2252 26.5702 72.0831L20.1551 67.1774Z" fill="#2A3541"/>
<path d="M107.845 67.1774C109.753 65.718 110.708 64.9883 110.708 64C110.708 63.0117 109.753 62.282 107.845 60.8226L101.43 55.9169C98.6285 53.7748 97.2279 52.7037 96.1139 53.2542C95 53.8046 95 55.5679 95 59.0943L95 68.9057C95 72.4321 95 74.1954 96.1139 74.7458C97.2279 75.2963 98.6285 74.2252 101.43 72.0831L107.845 67.1774Z" fill="#2A3541"/>
<path d="M51.3242 76.3599C48.9242 76.3599 46.9322 76.0239 45.3482 75.3519C43.7642 74.6559 42.5642 73.7559 41.7482 72.6519C40.9322 71.5479 40.5002 70.3719 40.4522 69.1239C40.4522 68.9319 40.5242 68.7639 40.6682 68.6199C40.8362 68.4519 41.0282 68.3679 41.2442 68.3679H45.7802C46.1162 68.3679 46.3682 68.4279 46.5362 68.5479C46.7282 68.6679 46.8962 68.8239 47.0402 69.0159C47.2322 69.3759 47.4962 69.7239 47.8322 70.0599C48.1922 70.3959 48.6482 70.6719 49.2002 70.8879C49.7762 71.0799 50.4842 71.1759 51.3242 71.1759C52.7162 71.1759 53.7602 70.9599 54.4562 70.5279C55.1762 70.0959 55.5362 69.5079 55.5362 68.7639C55.5362 68.2359 55.3442 67.8039 54.9602 67.4679C54.5762 67.1079 53.9522 66.7959 53.0882 66.5319C52.2482 66.2439 51.1202 65.9559 49.7042 65.6679C47.8802 65.2839 46.3202 64.7919 45.0242 64.1919C43.7522 63.5679 42.7802 62.7639 42.1082 61.7799C41.4362 60.7719 41.1002 59.5239 41.1002 58.0359C41.1002 56.5719 41.5082 55.2639 42.3242 54.1119C43.1642 52.9599 44.3282 52.0599 45.8162 51.4119C47.3042 50.7639 49.0682 50.4399 51.1082 50.4399C52.7642 50.4399 54.2162 50.6559 55.4642 51.0879C56.7362 51.5199 57.8042 52.0959 58.6682 52.8159C59.5322 53.5359 60.1802 54.3039 60.6122 55.1199C61.0682 55.9119 61.3082 56.6919 61.3322 57.4599C61.3322 57.6519 61.2602 57.8319 61.1162 57.9999C60.9722 58.1439 60.7922 58.2159 60.5762 58.2159H55.8242C55.5602 58.2159 55.3322 58.1679 55.1402 58.0719C54.9482 57.9759 54.7802 57.8199 54.6362 57.6039C54.4922 57.0759 54.1082 56.6199 53.4842 56.2359C52.8842 55.8279 52.0922 55.6239 51.1082 55.6239C50.0522 55.6239 49.2242 55.8159 48.6242 56.1999C48.0482 56.5599 47.7602 57.1239 47.7602 57.8919C47.7602 58.3719 47.9162 58.7919 48.2282 59.1519C48.5642 59.5119 49.1042 59.8239 49.8482 60.0879C50.6162 60.3519 51.6602 60.6279 52.9802 60.9159C55.1642 61.3239 56.9282 61.8399 58.2722 62.4639C59.6162 63.0639 60.6002 63.8559 61.2242 64.8399C61.8482 65.7999 62.1602 67.0119 62.1602 68.4759C62.1602 70.1079 61.6922 71.5239 60.7562 72.7239C59.8442 73.8999 58.5722 74.7999 56.9402 75.4239C55.3082 76.0479 53.4362 76.3599 51.3242 76.3599Z" fill="#2A3541"/>
<path d="M66.6641 75.9999C66.4001 75.9999 66.1841 75.9159 66.0161 75.7479C65.8481 75.5799 65.7641 75.3639 65.7641 75.0999V51.6999C65.7641 51.4359 65.8481 51.2199 66.0161 51.0519C66.1841 50.8839 66.4001 50.7999 66.6641 50.7999H77.6441C79.7081 50.7999 81.4001 51.0879 82.7201 51.6639C84.0401 52.2399 85.0121 53.0679 85.6361 54.1479C86.2841 55.2039 86.6082 56.4639 86.6082 57.9279C86.6082 58.7919 86.4401 59.5599 86.1041 60.2319C85.7921 60.8799 85.3961 61.4199 84.9161 61.8519C84.4601 62.2839 84.0281 62.5959 83.6201 62.7879C84.5321 63.2199 85.3361 63.9279 86.0321 64.9119C86.7521 65.8959 87.1121 67.0479 87.1121 68.3679C87.1121 69.9519 86.7521 71.3199 86.0321 72.4719C85.3361 73.5999 84.3041 74.4759 82.9361 75.0999C81.5921 75.6999 79.9361 75.9999 77.9681 75.9999H66.6641ZM72.2081 71.3199H77.2481C78.2801 71.3199 79.0601 71.0199 79.5881 70.4199C80.1161 69.8199 80.3801 69.1359 80.3801 68.3679C80.3801 67.5279 80.1041 66.8199 79.5521 66.2439C79.0241 65.6679 78.2561 65.3799 77.2481 65.3799H72.2081V71.3199ZM72.2081 60.8079H76.9241C77.9081 60.8079 78.6401 60.5559 79.1201 60.0519C79.6241 59.5479 79.8761 58.8999 79.8761 58.1079C79.8761 57.3399 79.6241 56.7159 79.1201 56.2359C78.6401 55.7319 77.9081 55.4799 76.9241 55.4799H72.2081V60.8079Z" fill="#2A3541"/>
</g>
<defs>
<clipPath id="clip0_747_26">
<rect width="128" height="128" fill="white"/>
</clipPath>
</defs>
</svg>
